<?xml version="1.0" encoding="UTF-8"?>
<svg width="73px" height="60px" viewBox="0 0 73 60" version="1.1" xmlns="http://www.w3.org/2000/svg" xmlns:xlink="http://www.w3.org/1999/xlink">
    <title>Group 7</title>
    <defs>
        <polygon id="path-1" points="0.000129438202 0.0856233708 29.0654778 0.0856233708 29.0654778 58.247191 0.000129438202 58.247191"></polygon>
        <linearGradient x1="50%" y1="0%" x2="50%" y2="99.5486698%" id="linearGradient-3">
            <stop stop-color="#FFDC60" offset="0%"></stop>
            <stop stop-color="#E79B53" offset="100%"></stop>
        </linearGradient>
        <polygon id="path-4" points="0.178236404 0.0856233708 29.2429375 0.0856233708 29.2429375 58.247191 0.178236404 58.247191"></polygon>
        <linearGradient x1="50%" y1="0%" x2="50%" y2="100%" id="linearGradient-6">
            <stop stop-color="#FFDC60" offset="0%"></stop>
            <stop stop-color="#E79B53" offset="99.5486698%"></stop>
        </linearGradient>
        <linearGradient x1="50%" y1="0%" x2="50%" y2="100%" id="linearGradient-7">
            <stop stop-color="#FFDB60" offset="0%"></stop>
            <stop stop-color="#E89D53" offset="100%"></stop>
        </linearGradient>
    </defs>
    <g id="Page-1" stroke="none" stroke-width="1" fill="none" fill-rule="evenodd">
        <g id="Home-02-Copy-8" transform="translate(-150.000000, -855.000000)">
            <g id="Group-7" transform="translate(150.000000, 855.000000)">
                <g id="Group-3" transform="translate(0.000000, 0.561568)">
                    <mask id="mask-2" fill="white">
                        <use xlink:href="#path-1"></use>
                    </mask>
                    <g id="Clip-2"></g>
                    <path d="M29.0654778,57.2694796 C28.991698,57.2474751 25.6651362,56.2294436 21.6810283,53.940329 C22.398116,53.0562661 23.7248575,50.7561492 21.3147182,47.7654796 C21.3147182,47.7654796 19.4721654,50.857111 20.5872755,53.2886076 C19.1770463,52.4168413 17.7182778,51.3897492 16.3125789,50.1956818 C16.7300171,49.7873043 19.0916171,47.2160144 16.2465654,43.6855874 C16.2465654,43.6855874 14.0622957,47.3486885 15.8899631,49.8351964 C14.0681204,48.2308099 12.3673025,46.3345402 11.0127317,44.1302076 C11.7026373,43.8189088 14.574871,42.2423515 13.2623676,38.0718526 C13.2623676,38.0718526 9.99275865,40.6081942 10.6541879,43.5334975 C9.87691146,42.1698661 9.2329564,40.6942706 8.78056989,39.0957088 C8.61294742,38.5048234 8.47380135,37.9210571 8.34565753,37.3398796 C9.26337438,37.1521942 12.1349609,36.2351245 11.9317429,32.0743335 C11.9317429,32.0743335 8.63689348,33.4819739 8.09713618,36.0933897 C7.69393618,33.7958616 7.58261933,31.5857043 7.6855227,29.4913942 C8.72167551,29.6350706 11.0761564,29.5690571 12.2760485,26.3622256 C12.2760485,26.3622256 9.21548225,26.3576953 7.77936539,28.1750076 C7.97287551,26.0916998 8.3689564,24.1358885 8.88088449,22.334756 C9.7157609,22.6661178 12.2676351,23.3372548 14.174907,20.1821987 C14.174907,20.1821987 10.8587002,19.5492458 9.1682373,21.3730301 C9.88920809,19.0942706 10.7810373,17.0963919 11.6534508,15.4369942 C12.5523991,15.9534526 14.7774418,16.7876818 17.0905025,14.2351604 C17.0905025,14.2351604 14.327644,13.1304054 12.3278238,14.2092728 C13.5691362,12.0495964 14.6577115,10.6581357 14.9877789,10.2549357 C15.3398508,9.82325933 15.71328,9.41682337 16.0938283,9.02138966 C16.6588261,9.42070652 19.1906373,10.9254256 21.8337654,8.00918292 C21.8337654,8.00918292 19.2566508,6.97691326 17.2788351,7.87650876 C18.5427991,6.73939416 19.8669519,5.77960989 21.1056755,4.99715596 C21.9237249,5.50002337 24.241316,6.51870202 26.6521025,3.85874697 C26.6521025,3.85874697 25.4217924,3.36623461 24.0096216,3.35652674 C25.3454238,2.68862562 26.2463137,2.34820315 26.270907,2.33914247 L25.9181879,1.38129978 C25.6832575,1.46802337 21.1878688,3.15330876 17.082089,6.67920539 C17.7823497,5.47801888 18.6347002,2.93908854 15.7786463,0.0856233708 C15.7786463,0.0856233708 13.2558957,5.46119191 16.3870058,7.30374472 C15.6239676,8.00853573 14.8822867,8.77092674 14.1969115,9.60968629 C13.5697834,10.3785492 12.9478328,11.2289582 12.345298,12.1505582 C12.7400845,10.5591155 12.5640485,8.34378067 10.1577924,5.94011326 C10.1577924,5.94011326 7.13282157,12.3809582 10.9454238,14.5199245 C10.2833474,15.7385852 9.66333843,17.0387919 9.11452045,18.4237807 C9.02003056,16.8873492 8.26022831,15.0344413 5.78278112,13.3672773 C5.78278112,13.3672773 4.09879011,20.0792953 8.04018337,21.5749537 C7.62921708,22.9754751 7.29267775,24.4290661 7.05645303,25.9318436 C6.77039461,24.3559335 5.73618337,22.4926706 2.76881258,21.2151155 C2.76881258,21.2151155 2.33066427,28.3866391 6.72703281,28.9082751 C6.60341933,30.7903065 6.63513169,32.7234661 6.86941483,34.6902796 C6.05265978,32.9888144 4.20363506,31.001938 0.000129438202,31.0025852 C0.000129438202,31.0025852 2.64325753,38.3261987 7.25514067,37.1288953 C7.40528899,37.8738121 7.58650247,38.6219649 7.79878112,39.3727065 C7.98711371,40.0360773 8.21363056,40.6735604 8.46021034,41.2974526 C7.13994067,40.0956189 4.95308225,39.1410121 1.44854292,40.0600234 C1.44854292,40.0600234 5.76077663,46.323538 9.87626427,44.21952 C10.7920396,45.7876638 11.8786733,47.2030706 13.0610912,48.48192 C11.3893969,47.8062526 8.96372494,47.6638706 5.97046652,49.8449043 C5.97046652,49.8449043 12.2398058,54.0840054 15.3126688,50.67072 C16.3015766,51.53472 17.3209025,52.313938 18.3344036,53.0180818 C16.5733969,52.7190796 14.2143856,53.0970391 11.7608845,55.7705852 C11.7608845,55.7705852 18.722071,58.6816503 21.0713744,54.7551425 C25.2218103,57.1594571 28.6978733,58.2247335 28.774889,58.2473852 L29.0654778,57.2694796 Z" id="Fill-1" fill="url(#linearGradient-3)" mask="url(#mask-2)"></path>
                </g>
                <g id="Group-6" transform="translate(42.067416, 0.561568)">
                    <mask id="mask-5" fill="white">
                        <use xlink:href="#path-4"></use>
                    </mask>
                    <g id="Clip-5"></g>
                    <path d="M0.178236404,57.2694796 C0.25201618,57.2474751 3.57793079,56.2294436 7.56203865,53.940329 C6.84495101,53.0562661 5.51885663,50.7561492 7.92834876,47.7654796 C7.92834876,47.7654796 9.77154876,50.857111 8.65579146,53.2886076 C10.0666679,52.4168413 11.5247892,51.3897492 12.9304881,50.1956818 C12.5130499,49.7873043 10.1514499,47.2160144 12.9971488,43.6855874 C12.9971488,43.6855874 15.1814184,47.3486885 13.3531038,49.8351964 C15.1749465,48.2308099 16.8764117,46.3345402 18.2303353,44.1302076 C17.5404297,43.8189088 14.668196,42.2423515 15.9813465,38.0718526 C15.9813465,38.0718526 19.2503083,40.6081942 18.5895263,43.5334975 C19.3661555,42.1698661 20.0107578,40.6942706 20.4631443,39.0957088 C20.6301196,38.5048234 20.7699128,37.9210571 20.8980566,37.3398796 C19.9803398,37.1521942 17.1081061,36.2351245 17.3119712,32.0743335 C17.3119712,32.0743335 20.6068207,33.4819739 21.146578,36.0933897 C21.549778,33.7958616 21.6610948,31.5857043 21.5575443,29.4913942 C20.5213915,29.6350706 18.1669106,29.5690571 16.9676656,26.3622256 C16.9676656,26.3622256 20.0282319,26.3576953 21.4637016,28.1750076 C21.2701915,26.0916998 20.8747578,24.1358885 20.3621825,22.334756 C19.5279533,22.6661178 16.9760791,23.3372548 15.0688072,20.1821987 C15.0688072,20.1821987 18.3850139,19.5492458 20.0748297,21.3730301 C19.3538589,19.0942706 18.4620297,17.0963919 17.5902634,15.4369942 C16.6913151,15.9534526 14.4662724,16.7876818 12.1525645,14.2351604 C12.1525645,14.2351604 14.9154229,13.1304054 16.9158903,14.2092728 C15.674578,12.0495964 14.5853555,10.6581357 14.2559353,10.2549357 C13.9032162,9.82325933 13.5304342,9.41682337 13.1498858,9.02138966 C12.5842409,9.42070652 10.0524297,10.9254256 7.40930157,8.00918292 C7.40930157,8.00918292 9.98641618,6.97691326 11.9642319,7.87650876 C10.7009151,6.73939416 9.37611506,5.77960989 8.13803865,4.99715596 C7.31934202,5.50002337 5.0023982,6.51870202 2.59161169,3.85874697 C2.59161169,3.85874697 3.82127461,3.36623461 5.23344539,3.35652674 C3.89829034,2.68862562 2.99740045,2.34820315 2.97280719,2.33914247 L3.32552629,1.38129978 C3.55980944,1.46802337 8.05584539,3.15330876 12.160978,6.67920539 C11.4613645,5.47801888 10.6083667,2.93908854 13.4650679,0.0856233708 C13.4650679,0.0856233708 15.9878184,5.46119191 12.8567083,7.30374472 C13.6197465,8.00853573 14.3614274,8.77092674 15.0468027,9.60968629 C15.6739308,10.3785492 16.2958813,11.2289582 16.897769,12.1505582 C16.5029825,10.5591155 16.6790184,8.34378067 19.0859218,5.94011326 C19.0859218,5.94011326 22.1102454,12.3809582 18.2976431,14.5199245 C18.9603667,15.7385852 19.5803757,17.0387919 20.1291937,18.4237807 C20.2236836,16.8873492 20.9828387,15.0344413 23.460933,13.3672773 C23.460933,13.3672773 25.144924,20.0792953 21.2035308,21.5749537 C21.6144971,22.9754751 21.9503892,24.4290661 22.1872611,25.9318436 C22.4733196,24.3559335 23.5068836,22.4926706 26.4749016,21.2151155 C26.4749016,21.2151155 26.9124027,28.3866391 22.5166813,28.9082751 C22.6402948,30.7903065 22.6085825,32.7234661 22.3736521,34.6902796 C23.1910544,32.9888144 25.0394319,31.001938 29.2429375,31.0025852 C29.2429375,31.0025852 26.6004566,38.3261987 21.9885735,37.1288953 C21.837778,37.8738121 21.6572117,38.6219649 21.4442858,39.3727065 C21.2566004,40.0360773 21.0294364,40.6735604 20.7835038,41.2974526 C22.1037735,40.0956189 24.2906319,39.1410121 27.7951712,40.0600234 C27.7951712,40.0600234 23.4829375,46.323538 19.3674499,44.21952 C18.4516746,45.7876638 17.3643937,47.2030706 16.1819757,48.48192 C17.8543173,47.8062526 20.2799892,47.6638706 23.2726004,49.8449043 C23.2726004,49.8449043 17.0032611,54.0840054 13.9303982,50.67072 C12.9414903,51.53472 11.9228117,52.313938 10.9086634,53.0180818 C12.6703173,52.7190796 15.0286813,53.0970391 17.4821825,55.7705852 C17.4821825,55.7705852 10.520996,58.6816503 8.17233978,54.7551425 C4.02125663,57.1594571 0.545193708,58.2247335 0.468825169,58.2473852 L0.178236404,57.2694796 Z" id="Fill-4" fill="url(#linearGradient-6)" mask="url(#mask-5)"></path>
                </g>
                <polygon id="Star" fill="url(#linearGradient-7)" points="36 37.5 27.1832212 42.1352549 28.8670761 32.3176275 21.7341523 25.3647451 31.5916106 23.9323725 36 15 40.4083894 23.9323725 50.2658477 25.3647451 43.1329239 32.3176275 44.8167788 42.1352549"></polygon>
            </g>
        </g>
    </g>
</svg>