<?xml version="1.0" encoding="UTF-8"?>
<svg width="188px" height="92px" viewBox="0 0 188 92" version="1.1" xmlns="http://www.w3.org/2000/svg" xmlns:xlink="http://www.w3.org/1999/xlink">
    <!-- Generator: Sketch 59.1 (86144) - https://sketch.com -->
    <title>toppr logo refined copy</title>
    <desc>Created with Sketch.</desc>
    <defs>
        <path d="M11.52,0.896 L148.48,0.896 C154.368,0.896 159.104,5.632 159.104,11.52 L159.104,52.48 C159.104,58.368 154.368,63.104 148.48,63.104 L11.52,63.104 C5.632,63.104 0.896,58.368 0.896,52.48 L0.896,11.52 C0.896,5.632 5.632,0.896 11.52,0.896 Z" id="path-1"></path>
        <filter x="-16.8%" y="-29.7%" width="133.5%" height="185.2%" filterUnits="objectBoundingBox" id="filter-2">
            <feOffset dx="0" dy="8" in="SourceAlpha" result="shadowOffsetOuter1"></feOffset>
            <feGaussianBlur stdDeviation="7.5" in="shadowOffsetOuter1" result="shadowBlurOuter1"></feGaussianBlur>
            <feComposite in="shadowBlurOuter1" in2="SourceAlpha" operator="out" result="shadowBlurOuter1"></feComposite>
            <feColorMatrix values="0 0 0 0 0.520010198   0 0 0 0 0.670479961   0 0 0 0 0.758944746  0 0 0 0.5 0" type="matrix" in="shadowBlurOuter1"></feColorMatrix>
        </filter>
    </defs>
    <g id="final" stroke="none" stroke-width="1" fill="none" fill-rule="evenodd">
        <g id="Learning-planet-Copy-3" transform="translate(-626.000000, -4974.000000)">
            <g id="Group-22" transform="translate(-11.000000, 3605.000000)">
                <g id="toppr-logo-refined-copy" transform="translate(651.000000, 1375.000000)">
                    <g id="Rectangle-12">
                        <use fill="black" fill-opacity="1" filter="url(#filter-2)" xlink:href="#path-1"></use>
                        <path stroke="#FFFFFF" stroke-width="1.77777778" d="M11.52,1.78488889 C6.12291978,1.78488889 1.78488889,6.12291978 1.78488889,11.52 L1.78488889,52.48 C1.78488889,57.8770802 6.12291978,62.2151111 11.52,62.2151111 L148.48,62.2151111 C153.87708,62.2151111 158.215111,57.8770802 158.215111,52.48 L158.215111,11.52 C158.215111,6.12291978 153.87708,1.78488889 148.48,1.78488889 L11.52,1.78488889 Z" stroke-linejoin="square" fill="#FFFFFF" fill-rule="evenodd"></path>
                    </g>
                    <g id="Group-25" transform="translate(19.008547, 14.222222)">
                        <ellipse id="Oval" fill="#FFFFFF" fill-rule="nonzero" cx="16.512" cy="16.64" rx="15.232" ry="15.36"></ellipse>
                        <g id="logo-square-200">
                            <g id="logo" transform="translate(0.064074, 0.117539)">
                                <path d="M80.256,9.728 C84.48,9.728 87.552,12.928 87.552,18.432 C87.552,23.936 84.48,27.136 80.256,27.136 C78.336,27.136 76.544,26.368 75.136,24.576 L75.136,24.576 L75.136,33.024 L70.784,33.024 L70.784,10.24 L75.136,10.24 L75.136,12.288 C76.416,10.624 78.208,9.728 80.256,9.728 Z M48.768,5.376 L48.768,9.984 L52.224,9.984 L52.224,13.952 L48.768,13.952 L48.768,21.632 C48.768,22.784 49.28,23.552 50.304,23.552 C50.944,23.552 51.584,23.296 51.84,23.04 L51.84,23.04 L52.736,26.496 C52.096,27.136 50.944,27.648 49.024,27.648 C45.952,27.648 44.288,25.984 44.288,22.912 L44.288,22.912 L44.288,14.08 L41.472,14.08 L41.472,9.984 L44.288,9.984 L44.288,5.376 L48.768,5.376 Z M117.504,9.728 L117.504,14.208 C117.12,14.08 116.736,14.08 116.224,14.08 C114.688,14.08 112.768,14.976 112,16 L112,16 L112,27.392 L107.392,27.392 L107.392,10.24 L112,10.24 L112,12.544 C113.28,11.008 115.328,9.728 117.504,9.728 L117.504,9.728 Z M60.672,9.728 C66.304,9.728 69.632,13.824 69.632,18.56 C69.632,23.296 66.304,27.392 60.672,27.392 C55.04,27.392 51.712,23.296 51.712,18.56 C51.712,13.824 55.04,9.728 60.672,9.728 Z M60.672,13.696 C57.856,13.696 56.192,16 56.192,18.688 C56.192,21.376 57.728,23.68 60.672,23.68 C63.616,23.68 65.152,21.376 65.152,18.688 C65.152,16 63.488,13.696 60.672,13.696 Z M79.104,13.44 C77.696,13.44 76.288,14.208 75.52,15.36 L75.52,15.36 L75.52,21.248 C76.16,22.272 77.824,23.168 79.104,23.168 C81.536,23.168 83.2,21.248 83.2,18.304 C83.2,15.36 81.536,13.44 79.104,13.44 Z M98.816,9.728 C103.04,9.728 106.112,12.928 106.112,18.432 C106.112,23.936 103.04,27.136 98.816,27.136 C96.896,27.136 95.104,26.368 93.696,24.576 L93.696,24.576 L93.696,33.024 L89.344,33.024 L89.344,10.24 L93.696,10.24 L93.696,12.288 C94.976,10.624 96.768,9.728 98.816,9.728 Z M98.176,13.44 C96.768,13.44 95.36,14.208 94.592,15.36 L94.592,15.36 L94.592,21.248 C95.232,22.272 96.896,23.168 98.176,23.168 C100.608,23.168 102.272,21.248 102.272,18.304 C102.144,15.36 100.48,13.44 98.176,13.44 Z" id="toppr" fill="#000000" fill-rule="nonzero"></path>
                                <path d="M20.096,0.384 C23.808,1.152 27.264,3.328 29.568,6.272 C31.104,8.32 32.256,10.624 32.768,13.184 C33.408,16.128 33.28,19.2 32.256,22.016 C31.232,25.216 29.056,28.16 26.368,30.208 C24.064,32 21.248,33.024 18.432,33.408 C15.36,33.792 12.288,33.28 9.472,32 C7.04,30.848 4.864,29.056 3.2,26.88 C2.304,25.728 1.664,24.448 1.152,23.04 C2.12590362e-15,20.096 -0.256,16.896 0.256,13.824 C0.64,11.392 1.792,8.96 3.2,6.912 C4.992,4.352 7.552,2.432 10.368,1.28 C12.032,0.512 13.696,0.128 15.36,0 C17.024,0 18.56,0 20.096,0.384 Z M15.744,5.888 L15.744,5.888 L15.744,5.888 C12.416,9.216 9.216,12.544 6.016,15.744 C5.504,16.256 5.504,17.152 6.016,17.664 C6.656,18.304 7.296,18.944 7.936,19.584 C8.448,20.096 9.344,20.096 9.856,19.584 C11.136,18.176 12.544,16.896 13.824,15.488 C13.824,15.616 13.824,15.616 13.824,15.744 L13.824,26.112 L13.824,26.112 C13.824,26.24 13.824,26.496 13.824,26.624 C13.952,27.264 14.592,27.776 15.104,27.776 C16,27.776 16.896,27.776 17.792,27.776 C18.304,27.776 18.816,27.392 19.072,26.88 C19.2,26.624 19.2,26.24 19.2,25.984 C19.2,22.528 19.2,19.072 19.2,15.616 C20.48,16.896 21.76,18.176 23.04,19.584 C23.168,19.712 23.296,19.84 23.424,19.968 C23.808,20.224 24.448,20.224 24.832,19.968 C24.96,19.84 25.088,19.712 25.344,19.584 C25.856,19.072 26.368,18.56 26.88,18.048 C27.008,17.92 27.264,17.664 27.392,17.536 C27.648,17.024 27.52,16.256 27.136,15.872 C23.936,12.672 20.736,9.344 17.536,6.144 C17.152,5.504 16.256,5.376 15.744,5.888 Z" id="Path" fill="#55BBEA"></path>
                            </g>
                        </g>
                    </g>
                </g>
            </g>
        </g>
    </g>
</svg>